<?xml version="1.0" standalone="no"?>
<!DOCTYPE svg PUBLIC "-//W3C//DTD SVG 20010904//EN"
 "http://www.w3.org/TR/2001/REC-SVG-20010904/DTD/svg10.dtd">
<svg version="1.0" xmlns="http://www.w3.org/2000/svg"
 width="700.000000pt" height="700.000000pt" viewBox="0 0 700.000000 700.000000"
 preserveAspectRatio="xMidYMid meet">
<metadata>
Created by potrace 1.11, written by Peter Selinger 2001-2013
</metadata>
<g transform="translate(0.000000,700.000000) scale(0.100000,-0.100000)"
fill="#000000" stroke="none">
<path d="M2458 6965 c-2 -2 -35 -9 -73 -15 -108 -17 -246 -79 -324 -145 -144
-121 -239 -312 -244 -491 -1 -38 10 -155 18 -184 50 -195 211 -379 404 -459
168 -71 387 -65 556 13 72 34 174 106 210 148 126 147 174 263 181 434 3 78
-1 119 -16 178 -42 165 -153 318 -295 409 -74 47 -199 95 -256 98 -19 2 -38 5
-44 8 -12 6 -111 12 -117 6z"/>
<path d="M2457 5395 c-1 -2 -42 -6 -91 -9 -49 -4 -92 -9 -95 -10 -3 -2 -28 -7
-56 -10 -149 -19 -372 -103 -540 -204 -216 -129 -439 -365 -563 -594 -108
-199 -199 -499 -237 -778 -3 -25 -8 -52 -10 -60 -3 -13 -7 -46 -20 -190 -2
-19 -6 -69 -10 -110 -3 -41 -8 -93 -10 -115 -15 -152 -19 -566 -19 -1835 l-1
-1445 355 0 355 0 1 1305 c1 1170 7 1787 19 1934 2 28 7 102 10 165 7 120 8
133 25 246 28 196 83 390 151 533 136 291 382 483 669 526 106 16 190 8 340
-32 59 -15 176 -79 237 -129 201 -164 357 -440 418 -738 66 -327 77 -652 79
-2512 l1 -1298 355 0 355 0 0 1125 c0 1108 0 1125 20 1152 29 38 102 85 170
108 33 11 61 20 63 20 1 0 3 0 5 1 25 7 97 11 197 12 235 2 379 -51 516 -188
69 -69 90 -98 133 -186 47 -96 84 -208 95 -290 3 -19 7 -45 10 -58 3 -14 10
-61 16 -105 6 -45 13 -92 15 -106 2 -14 7 -50 10 -80 3 -30 7 -71 10 -90 7
-61 14 -133 20 -215 4 -44 8 -101 11 -127 7 -81 16 -403 19 -688 1 -151 3
-278 4 -281 0 -3 160 -5 354 -5 l352 1 -1 410 c0 360 -8 688 -19 780 -2 17 -6
68 -9 115 -4 47 -8 101 -11 120 -2 19 -6 58 -9 85 -7 65 -34 253 -41 285 -3
14 -10 48 -15 75 -39 195 -143 472 -236 628 -143 237 -358 424 -584 506 -19 7
-44 17 -55 21 -33 14 -148 40 -242 54 -57 9 -151 13 -268 11 -193 -3 -235 -6
-305 -25 -118 -31 -152 -43 -169 -62 -11 -11 -21 -16 -24 -11 -3 4 -8 46 -11
93 -4 47 -11 112 -16 145 -5 33 -11 83 -15 110 -3 28 -10 75 -15 105 -6 30
-15 91 -21 135 -11 85 -14 111 -25 190 -10 73 -12 87 -18 115 -3 14 -11 50
-17 80 -14 73 -73 273 -103 352 -165 434 -483 769 -877 927 -80 32 -235 79
-284 86 -16 2 -39 6 -50 9 -54 11 -289 28 -298 21z"/>
<path d="M4765 4255 c-5 -2 -34 -11 -64 -20 -302 -93 -424 -485 -227 -728 70
-86 176 -147 286 -164 309 -48 557 135 573 423 12 221 -136 423 -351 479 -49
13 -188 19 -217 10z"/>
</g>
</svg>
